<svg width="28" height="28" viewBox="0 0 28 28" fill="none" xmlns="http://www.w3.org/2000/svg">
<path fill-rule="evenodd" clip-rule="evenodd" d="M27.4862 25.1481L19.8202 17.4791C21.1943 15.6049 21.9305 13.3391 21.9202 11.0151C21.894 4.94882 16.9874 0.0351489 10.9212 0.000111436C8.01815 -0.0130231 5.23043 1.13542 3.17906 3.18961C1.12769 5.2438 -0.0169299 8.03309 0.0001893 10.9361C0.0264087 17.003 4.93339 21.9171 11.0002 21.9521C13.3336 21.9622 15.6077 21.2175 17.4832 19.8291L17.4912 19.8231L25.1502 27.4861C25.5643 27.9205 26.1813 28.0964 26.7622 27.9455C27.3431 27.7946 27.7966 27.3408 27.947 26.7597C28.0973 26.1787 27.921 25.5618 27.4862 25.1481V25.1481ZM10.9922 19.7561C6.139 19.7282 2.21348 15.7973 2.19217 10.9441C2.17907 8.622 3.09485 6.39101 4.73563 4.74778C6.37642 3.10455 8.60604 2.18547 10.9282 2.19511C15.7813 2.22303 19.7069 6.15391 19.7282 11.0071C19.7413 13.3292 18.8255 15.5602 17.1847 17.2034C15.5439 18.8467 13.3143 19.7658 10.9922 19.7561Z" fill="white"/>
</svg>

